<svg xmlns="http://www.w3.org/2000/svg" viewBox="0 0 1440 900" width="100%" height="100%">
  <line x1="360" y1="300" x2="720" y2="580" stroke="#6C4DFF" stroke-width="4" opacity="0.6"/>
  <line x1="720" y1="580" x2="1080" y2="320" stroke="#6C4DFF" stroke-width="4" opacity="0.6"/>
  <line x1="360" y1="300" x2="1080" y2="320" stroke="#8A2BE2" stroke-width="3" opacity="0.4"/>
  <line x1="720" y1="580" x2="180" y2="710" stroke="#8A2BE2" stroke-width="3" opacity="0.5"/>
  <line x1="1080" y1="320" x2="1280" y2="660" stroke="#6C4DFF" stroke-width="3" opacity="0.5"/>
  <circle cx="360" cy="268" r="32" fill="#6C4DFF"/>
  <path d="M310 334 Q360 298 410 334 L426 432 L294 432 Z" fill="#6C4DFF"/>
  <circle cx="720" cy="548" r="32" fill="#8A2BE2"/>
  <path d="M670 614 Q720 578 770 614 L786 712 L654 712 Z" fill="#8A2BE2"/>
  <circle cx="1080" cy="288" r="32" fill="#6C4DFF"/>
  <path d="M1030 354 Q1080 318 1130 354 L1146 452 L1014 452 Z" fill="#6C4DFF"/>
  <circle cx="180" cy="678" r="22" fill="#8A2BE2" opacity="0.7"/>
  <path d="M152 706 Q180 688 208 706 L216 770 L144 770 Z" fill="#8A2BE2" opacity="0.7"/>
  <circle cx="1280" cy="628" r="22" fill="#6C4DFF" opacity="0.7"/>
  <path d="M1252 656 Q1280 638 1308 656 L1316 720 L1244 720 Z" fill="#6C4DFF" opacity="0.7"/>
</svg>
