<svg xmlns="http://www.w3.org/2000/svg" viewBox="0 0 1440 900" width="100%" height="100%">
  <path d="M0 600 C160 560 320 640 480 600 C640 560 800 620 960 582 C1120 544 1280 600 1440 566 L1440 900 L0 900 Z" fill="#6C4DFF" opacity="0.55"/>
  <path d="M0 690 C200 658 400 722 600 690 C800 658 1000 712 1200 680 C1340 658 1400 688 1440 672 L1440 900 L0 900 Z" fill="#8A2BE2" opacity="0.4"/>
  <path d="M0 780 C240 752 480 796 720 770 C960 744 1200 786 1440 762 L1440 900 L0 900 Z" fill="#6C4DFF" opacity="0.3"/>
  <circle cx="280" cy="470" r="44" fill="#6C4DFF"/>
  <path d="M234 526 Q280 494 326 526 L348 610 L212 610 Z" fill="#6C4DFF"/>
  <line x1="326" y1="550" x2="414" y2="532" stroke="#6C4DFF" stroke-width="20" stroke-linecap="round"/>
  <line x1="414" y1="532" x2="450" y2="504" stroke="#8A2BE2" stroke-width="10" stroke-linecap="round"/>
  <rect x="348" y="542" width="96" height="66" rx="6" fill="#8A2BE2" opacity="0.85"/>
  <line x1="368" y1="564" x2="424" y2="564" stroke="#6C4DFF" stroke-width="5"/>
  <line x1="368" y1="586" x2="424" y2="586" stroke="#6C4DFF" stroke-width="5"/>
</svg>
