<svg xmlns="http://www.w3.org/2000/svg" viewBox="0 0 900 1400" fill="none">
  <g transform="translate(180,1000) rotate(-6)">
    <rect x="-140" y="-190" width="280" height="380" rx="14" stroke="#8B7FFF" stroke-width="4"/>
    <line x1="-140" y1="-140" x2="140" y2="-140" stroke="#8B7FFF" stroke-width="3"/>
    <line x1="-100" y1="-90" x2="100" y2="-90" stroke="#8B7FFF" stroke-width="3"/>
    <line x1="-100" y1="-50" x2="100" y2="-50" stroke="#8B7FFF" stroke-width="3"/>
    <line x1="-100" y1="-10" x2="60" y2="-10" stroke="#8B7FFF" stroke-width="3"/>
    <circle cx="-118" cy="-165" r="5" stroke="#8B7FFF" stroke-width="3"/>
    <circle cx="-70" cy="-165" r="5" stroke="#8B7FFF" stroke-width="3"/>
    <circle cx="-22" cy="-165" r="5" stroke="#8B7FFF" stroke-width="3"/>
  </g>

  <g transform="translate(560,760) rotate(38)">
    <rect x="-14" y="-160" width="28" height="220" rx="6" stroke="#8B7FFF" stroke-width="4"/>
    <path d="M -14 60 L 0 110 L 14 60 Z" stroke="#8B7FFF" stroke-width="4" stroke-linejoin="round"/>
    <line x1="-14" y1="-110" x2="14" y2="-110" stroke="#8B7FFF" stroke-width="3"/>
  </g>

  <circle cx="700" cy="300" r="4" fill="#8B7FFF"/>
  <circle cx="740" cy="1100" r="3" fill="#8B7FFF"/>
  <circle cx="120" cy="450" r="3" fill="#8B7FFF"/>
  <circle cx="300" cy="150" r="4" fill="#8B7FFF"/>
</svg>
